# xmcd
#
# Track frame offsets:
#	150
#	21421
#	41491
#	56988
#	76789
#	87456
#	102908
#	124919
#	146311
#	165942
#	187483
#	217047
#	230367
#	253797
#	269562
#	288838
#	314366
#	325680
#
# Disc length: 4611 seconds
#
# Revision: 0
# Processed by: cddbd v1.5.1PL0 Copyright (c) Steve Scherf et al.
# Submitted via: dBpowerAMP V4.0
#
DISCID=09120112
DTITLE=Barbra Streisand - Duets
DYEAR=1900
DGENRE=Bluegrass
TTITLE0=Barry Manilow_I won't be the one to let go
TTITLE1=Barry Gibb_Guilty
TTITLE2=Neil Diamond_You don't send me flowers
TTITLE3=Bryan Adams_I finally found someone
TTITLE4=Ray Charles_Cryin'time
TTITLE5=Frank Sinatra_I've got a crush on you
TTITLE6=Celine Dion_Tell him
TTITLE7=Donna Summer_No more tears
TTITLE8=Barry Gibb_What kind of fool
TTITLE9=Johnny Mathis_I have love/One hand one heart
TTITLE10=Barbra_One less bell to answer/A house is not a home
TTITLE11=Kris Kristofferson_Lost inside of you
TTITLE12=Don Johnson_Till I loved you
TTITLE13=Kim Carnes_Make no mistake, he's mine
TTITLE14=Vince Gill_If you ever leave me
TTITLE15=Michael Crawford_The music of the night
TTITLE16=Harold Harlem_Ding dong the witch is dead
TTITLE17=Judy Garland_Happy days are here again
EXTD=
EXTT0=
EXTT1=
EXTT2=
EXTT3=
EXTT4=
EXTT5=
EXTT6=
EXTT7=
EXTT8=
EXTT9=
EXTT10=
EXTT11=
EXTT12=
EXTT13=
EXTT14=
EXTT15=
EXTT16=
EXTT17=
PLAYORDER=
